<?xml version="1.0" encoding="utf-8"?>
<!-- Generator: Adobe Illustrator 23.0.1, SVG Export Plug-In . SVG Version: 6.00 Build 0)  -->
<svg version="1.1" id="Layer_1" xmlns="http://www.w3.org/2000/svg" xmlns:xlink="http://www.w3.org/1999/xlink" x="0px" y="0px"
	 viewBox="0 0 32 32" style="enable-background:new 0 0 32 32;" xml:space="preserve">
<style type="text/css">
	.st0{fill:#425383;}
</style>
<title></title>
<g id="Youtube">
	<path class="st0" d="M26.5,30h-21c-0.9,0-1.8-0.3-2.5-1c-0.7-0.7-1-1.6-1-2.5v-21C2,4.6,2.3,3.7,3,3c0.7-0.7,1.6-1,2.5-1h21
		c0.9,0,1.8,0.3,2.5,1c0.7,0.7,1,1.6,1,2.5v21C30,28.4,28.4,30,26.5,30z M16.1,22.7c1,0,2.2,0,3.7,0c2-0.1,3.1-0.1,3.4-0.2
		c0.4-0.1,0.8-0.2,1.2-0.5c0.4-0.3,0.6-0.7,0.8-1.1c0.4-1.3,0.5-2.7,0.5-4.1v-1.6c0-1-0.1-2.1-0.2-3.1c-0.1-0.7-0.3-1.3-0.7-1.9
		c-0.2-0.2-0.3-0.3-0.4-0.3c-0.3-0.2-0.6-0.4-1-0.5c-2.4-0.3-4.9-0.3-7.3-0.3c-1,0-2.2,0-3.5,0.1c-1.3,0-2.5,0.1-3.8,0.2
		c-0.6,0.1-1.1,0.4-1.5,0.9c-0.3,0.5-0.5,1.1-0.6,1.7c-0.1,1-0.2,2.1-0.2,3.1c-0.1,1.7,0,3.4,0.3,5c0.1,0.3,0.2,0.7,0.3,1
		c0.3,0.6,0.9,1,1.5,1.2l0.8,0.1c0.6,0.1,1.2,0.1,1.8,0.1C13.3,22.6,15,22.7,16.1,22.7z M14,18.4V13l4.3,2.2
		c0.6,0.3,0.9,0.5,0.9,0.5L14,18.4z"/>
</g>
</svg>
