<?xml version="1.0" encoding="utf-8"?>
<!-- Generator: Adobe Illustrator 23.0.1, SVG Export Plug-In . SVG Version: 6.00 Build 0)  -->
<svg version="1.1" id="Layer_1" xmlns="http://www.w3.org/2000/svg" xmlns:xlink="http://www.w3.org/1999/xlink" x="0px" y="0px"
	 viewBox="0 0 32 32" style="enable-background:new 0 0 32 32;" xml:space="preserve">
<style type="text/css">
	.st0{fill:#425383;}
</style>
<title></title>
<g id="Instagram">
	<path class="st0" d="M26.5,30h-21c-0.9,0-1.8-0.3-2.5-1c-0.7-0.7-1-1.6-1-2.5v-21C2,4.6,2.3,3.7,3,3c0.7-0.7,1.6-1,2.5-1h21
		c0.9,0,1.8,0.3,2.5,1c0.7,0.7,1,1.6,1,2.5v21C30,28.4,28.4,30,26.5,30z M24.7,10.6c0-1.9-1.5-3.5-3.4-3.5c0,0,0,0-0.1,0H10.7
		c-1.9,0-3.5,1.5-3.5,3.5c0,0,0,0,0,0v10.5c0,1.9,1.5,3.5,3.4,3.5c0,0,0,0,0.1,0h10.6c1.9,0,3.5-1.5,3.5-3.4c0,0,0-0.1,0-0.1V10.6z
		 M16,11.5c-0.5,0-0.9,0.1-1.4,0.2c-0.4,0.2-0.9,0.4-1.2,0.6H9v-0.9c0-1.4,1.1-2.6,2.5-2.6c0,0,0.1,0,0.1,0h8.8
		c0.7,0,1.4,0.3,1.9,0.8c0.5,0.5,0.8,1.2,0.8,1.9v0.9h-4.4c-0.4-0.3-0.8-0.5-1.2-0.6C16.9,11.5,16.5,11.5,16,11.5L16,11.5z
		 M20.4,22.9h-8.8c-0.7,0-1.4-0.3-1.9-0.8C9.3,21.6,9,20.9,9,20.2v-7h3.5c-0.3,0.4-0.5,0.8-0.6,1.2c-0.2,0.4-0.3,0.9-0.2,1.4
		c0,0.6,0.1,1.2,0.4,1.7c0.2,0.5,0.5,1,0.9,1.4c0.4,0.4,0.9,0.7,1.4,1c0.5,0.2,1.1,0.4,1.7,0.4c1.2,0,2.3-0.5,3.1-1.3
		c0.4-0.4,0.7-0.9,0.9-1.4c0.2-0.5,0.4-1.1,0.4-1.7c0-0.5-0.1-1-0.2-1.4c-0.2-0.4-0.4-0.8-0.6-1.2H23v7c0,0.7-0.3,1.4-0.8,1.9
		C21.7,22.6,21.1,22.9,20.4,22.9z M16,13.2c0.7,0,1.4,0.3,1.9,0.8c1,1,1,2.7,0,3.7c0,0,0,0,0,0c-0.5,0.5-1.2,0.8-1.9,0.8
		c-0.7,0-1.4-0.3-1.9-0.8c-1-1-1-2.7,0-3.7C14.6,13.5,15.3,13.2,16,13.2z M19.5,11.5h1.8V9.7h-1.7L19.5,11.5z"/>
</g>
</svg>
