<?xml version="1.0" encoding="utf-8"?>
<!-- Generator: Adobe Illustrator 23.0.1, SVG Export Plug-In . SVG Version: 6.00 Build 0)  -->
<svg version="1.1" id="Layer_1" xmlns="http://www.w3.org/2000/svg" xmlns:xlink="http://www.w3.org/1999/xlink" x="0px" y="0px"
	 viewBox="0 0 32 32" style="enable-background:new 0 0 32 32;" xml:space="preserve">
<style type="text/css">
	.st0{fill:#425383;}
</style>
<title></title>
<g id="Facebook">
	<path class="st0" d="M26.5,30h-21c-0.9,0-1.8-0.3-2.5-1c-0.7-0.7-1-1.6-1-2.5v-21C2,4.6,2.3,3.7,3,3c0.7-0.7,1.6-1,2.5-1h21
		c0.9,0,1.8,0.3,2.5,1c0.7,0.7,1,1.6,1,2.5v21C30,28.4,28.4,30,26.5,30z M17.4,25.2v-8.4h2.8l0.4-3.3h-3.2v-1.8c0-0.3,0-0.7,0.1-1
		c0-0.1,0.1-0.2,0.1-0.3c0.2-0.4,0.8-0.6,1.6-0.6h1.5V6.9c-0.8-0.1-1.7-0.1-2.5-0.1c-1.5-0.1-2.9,0.6-3.6,1.9
		c-0.4,0.7-0.6,1.6-0.6,2.4v2.5h-2.8v3.3H14v8.4L17.4,25.2z"/>
</g>
</svg>
