<?xml version="1.0" encoding="utf-8"?>
<!-- Generator: Adobe Illustrator 23.0.2, SVG Export Plug-In . SVG Version: 6.00 Build 0)  -->
<svg version="1.1" id="Layer_1" xmlns="http://www.w3.org/2000/svg" xmlns:xlink="http://www.w3.org/1999/xlink" x="0px" y="0px"
	 viewBox="0 0 464 195" style="enable-background:new 0 0 464 195;" xml:space="preserve">
<style type="text/css">
	.st0{fill:#FFFFFF;}
	.st1{fill:#C75C63;}
	.st2{fill:#8F9ABC;}
	.st3{fill:#62759F;}
	.st4{fill:#455E8C;}
	.st5{fill:#3A507D;}
	.st6{fill:#D37A7D;}
	.st7{fill:#BA4A55;}
</style>
<g>
	<path class="st0" d="M199.5,44.6H174l-4.5,8.3h-11.3l28.5-52.2l28.6,52.2H204L199.5,44.6z M194.1,34.7l-7.3-13.5l-7.3,13.5H194.1z"
		/>
	<path class="st0" d="M231,3.4h2.6L264,32.3V3.4h9.9v49.5h-2.7L240.9,24v28.9H231V3.4z"/>
	<path class="st0" d="M296.9,52.9V3.4H315c13.7,0,24.8,11.1,24.8,24.8c0,13.7-11.1,24.8-24.8,24.8H296.9z M315,43
		c8.2,0,14.9-6.7,14.9-14.9s-6.7-14.9-14.9-14.9h-8.3V43H315z"/>
	<path class="st0" d="M346.9,3.4h11.7l13.1,21l13.2-21h11.7l-19.9,31.7v17.8h-9.9V35.1L346.9,3.4z"/>
</g>
<g>
	<path class="st0" d="M197.8,72.6h11.7l13.1,21l13.2-21h11.7l-19.9,31.7v17.8h-9.9v-17.8L197.8,72.6z"/>
	<path class="st0" d="M291.6,113.9h-25.5l-4.5,8.3h-11.3l28.5-52.2l28.6,52.2h-11.3L291.6,113.9z M286.2,104l-7.3-13.5l-7.3,13.5
		H286.2z"/>
	<path class="st0" d="M324,72.6h2.6l30.4,28.9V72.6h9.9v49.5h-2.7l-30.3-28.9v28.9H324V72.6z"/>
	<path class="st0" d="M431.6,112.2c-4.5,6-11.7,9.9-19.8,9.9c-13.7,0-24.8-11.1-24.8-24.8c0-13.7,11.1-24.8,24.8-24.8
		c8.6,0,16.2,4.4,20.7,11.2l-7.9,6.1c-2.6-4.4-7.3-7.3-12.8-7.3c-8.2,0-14.9,6.7-14.9,14.9s6.7,14.9,14.9,14.9
		c3.8,0,7.3-1.5,9.9-3.8v-2.8h-11.6v-9.9h21.5V112.2z"/>
</g>
<g>
	<path class="st1" d="M276,171.7l-10.5,12.4h14.3v9.9h-35.6l24.2-28.7c1-1.1,1.5-2.6,1.5-4.3c0-3.6-2.9-6.6-6.6-6.6
		c-3.6,0-6.6,3-6.6,6.6c0,1.1,0.3,2.1,0.7,3l0.7,1.5l-8.8,4.4l-0.7-1.5c-1.1-2.2-1.8-4.8-1.8-7.4c0-9.1,7.4-16.5,16.5-16.5
		c9.1,0,16.5,7.4,16.5,16.5C279.8,165,278.4,168.8,276,171.7z"/>
	<path class="st1" d="M322.2,194c-13.7,0-24.8-11.1-24.8-24.8c0-13.7,11.1-24.8,24.8-24.8c13.7,0,24.8,11.1,24.8,24.8
		C347,182.9,335.9,194,322.2,194z M307.4,169.3c0,8.2,6.7,14.9,14.9,14.9c8.2,0,14.9-6.7,14.9-14.9c0-8.2-6.7-14.9-14.9-14.9
		C314,154.4,307.4,161.1,307.4,169.3z"/>
	<path class="st1" d="M392.4,171.7l-10.5,12.4h14.3v9.9h-35.6l24.2-28.7c1-1.1,1.5-2.6,1.5-4.3c0-3.6-2.9-6.6-6.6-6.6
		c-3.6,0-6.6,3-6.6,6.6c0,1.1,0.3,2.1,0.7,3l0.7,1.5l-8.8,4.4l-0.7-1.5c-1.1-2.2-1.8-4.8-1.8-7.4c0-9.1,7.4-16.5,16.5-16.5
		c9.1,0,16.5,7.4,16.5,16.5C396.2,165,394.7,168.8,392.4,171.7z"/>
	<path class="st1" d="M438.6,194c-13.7,0-24.8-11.1-24.8-24.8c0-13.7,11.1-24.8,24.8-24.8c13.7,0,24.8,11.1,24.8,24.8
		C463.3,182.9,452.2,194,438.6,194z M423.7,169.3c0,8.2,6.7,14.9,14.9,14.9s14.9-6.7,14.9-14.9c0-8.2-6.7-14.9-14.9-14.9
		S423.7,161.1,423.7,169.3z"/>
</g>
<g>
	<g>
		<g>
			<g>
				<polygon class="st2" points="177.7,114.3 129.5,148.4 99.5,133.8 144.2,56.3 				"/>
			</g>
			<g>
				<polygon class="st3" points="206.4,164 175.3,170.7 129.5,148.4 177.7,114.3 				"/>
			</g>
			<g>
				<polygon class="st4" points="223.9,194.3 175.3,170.7 206.4,164 				"/>
			</g>
			<g>
				<polygon class="st3" points="129.5,148.4 64.5,194.3 99.5,133.8 				"/>
			</g>
			<g>
				<polygon class="st4" points="175.3,170.7 64.5,194.3 129.5,148.4 				"/>
			</g>
			<g>
				<polygon class="st5" points="223.9,194.3 64.5,194.3 175.3,170.7 				"/>
			</g>
		</g>
		<g>
			<polygon class="st0" points="144.2,108.2 153.9,127.8 175.5,131 159.9,146.2 163.6,167.8 144.2,157.6 124.9,167.8 128.6,146.2 
				112.9,131 134.6,127.8 			"/>
		</g>
	</g>
	<g>
		<g>
			<polygon class="st6" points="117.8,9.8 11.3,194.4 0.7,194.4 112.6,0.6 			"/>
		</g>
	</g>
	<g>
		<g>
			<polygon class="st1" points="128.3,28.2 32.3,194.4 21.7,194.4 123,18.9 			"/>
		</g>
	</g>
	<g>
		<g>
			<polygon class="st7" points="138.8,46.5 53.4,194.4 42.8,194.4 133.5,37.2 			"/>
		</g>
	</g>
</g>
<title>Asset 1</title>
</svg>
