<?xml version="1.0" encoding="utf-8"?>
<!-- Generator: Adobe Illustrator 23.0.1, SVG Export Plug-In . SVG Version: 6.00 Build 0)  -->
<svg version="1.1" id="Layer_1" xmlns="http://www.w3.org/2000/svg" xmlns:xlink="http://www.w3.org/1999/xlink" x="0px" y="0px"
	 viewBox="0 0 409.4 172" style="enable-background:new 0 0 409.4 172;" xml:space="preserve">
<style type="text/css">
	.st0{fill:#62749F;}
	.st1{fill:#455E8D;}
	.st2{fill:#C75D63;}
	.st3{fill:#909BBC;}
	.st4{fill:#3B507D;}
	.st5{fill:#FFFFFF;}
	.st6{fill:#E5A7A6;}
	.st7{fill:#D37A7C;}
	.st8{fill:#BB4A55;}
</style>
<title>logo</title>
<g>
	<g id="Layer_1-2">
		<path class="st0" d="M176.6,39.9h-22.5l-4,7.3h-10l25.2-46.1l25.2,46.1h-10L176.6,39.9z M171.8,31.2l-6.5-11.9l-6.5,11.9
			L171.8,31.2z"/>
		<path class="st0" d="M204.4,3.5h2.3L233.5,29V3.5h8.7v43.7h-2.4l-26.7-25.5v25.5h-8.7V3.5z"/>
		<path class="st0" d="M262.5,47.2V3.5h16c12.1,0,21.8,9.8,21.8,21.8s-9.8,21.8-21.8,21.8H262.5z M278.5,38.5
			c7.2-0.2,12.9-6.2,12.7-13.5c-0.2-7-5.8-12.6-12.7-12.7h-7.3v26.2H278.5z"/>
		<path class="st0" d="M306.7,3.5H317L328.6,22l11.6-18.5h10.3l-17.5,28v15.7h-8.7V31.5L306.7,3.5z"/>
		<path class="st1" d="M175.1,64.6h10.3L197,83.1l11.6-18.5H219l-17.6,28v15.7h-8.7V92.6L175.1,64.6z"/>
		<path class="st1" d="M257.9,101h-22.5l-4,7.3h-10l25.2-46.1l25.2,46.1h-10L257.9,101z M253.1,92.3l-6.5-11.9l-6.5,11.9L253.1,92.3
			z"/>
		<path class="st1" d="M286.4,64.6h2.3l26.8,25.5V64.6h8.7v43.7h-2.4l-26.7-25.5v25.5h-8.7V64.6z"/>
		<path class="st1" d="M381.4,99.6c-7.2,9.7-20.9,11.6-30.6,4.4c-9.7-7.2-11.6-20.9-4.4-30.6S367.4,61.7,377,69
			c2,1.5,3.8,3.4,5.2,5.5l-6.9,5.4c-3.7-6.2-11.7-8.3-17.9-4.6c-6.2,3.7-8.3,11.7-4.6,17.9c3.7,6.2,11.7,8.3,17.9,4.6
			c0.7-0.4,1.4-0.9,2.1-1.5v-2.5h-10.2V85h18.9V99.6z"/>
		<path class="st2" d="M244.1,152l-9.3,11h12.6v8.7h-31.4l21.3-25.3c0.9-1.1,1.4-2.4,1.3-3.8c-0.1-3.2-2.8-5.7-6.1-5.6
			c-3,0.1-5.5,2.6-5.6,5.6c0,0.9,0.2,1.8,0.6,2.6l0.6,1.3l-7.8,3.9l-0.6-1.3c-1-2-1.6-4.3-1.6-6.5c0.2-8,6.9-14.4,14.9-14.2
			c7.7,0.2,14,6.4,14.2,14.2C247.5,146,246.3,149.4,244.1,152z"/>
		<path class="st2" d="M284.9,171.7c-12.1,0-21.8-9.8-21.8-21.8s9.8-21.8,21.8-21.8c12.1,0,21.8,9.8,21.8,21.8l0,0
			C306.7,161.9,296.9,171.7,284.9,171.7z M271.8,149.9c0,7.2,5.9,13.1,13.1,13.1c7.2,0,13.1-5.9,13.1-13.1s-5.9-13.1-13.1-13.1
			c0,0,0,0,0,0C277.6,136.8,271.8,142.6,271.8,149.9L271.8,149.9z"/>
		<path class="st2" d="M346.8,152l-9.3,11h12.6v8.7h-31.4l21.3-25.3c0.9-1.1,1.4-2.4,1.3-3.8c-0.1-3.2-2.8-5.7-6.1-5.6
			c-3,0.1-5.5,2.6-5.6,5.6c0,0.9,0.2,1.8,0.6,2.6l0.6,1.3l-7.8,3.9l-0.6-1.3c-1.1-2-1.6-4.3-1.6-6.5c0.2-8,6.9-14.4,14.9-14.2
			c7.7,0.2,14,6.4,14.2,14.2C350.1,146,348.9,149.3,346.8,152z"/>
		<path class="st2" d="M387.6,171.7c-12.1,0-21.8-9.8-21.8-21.8s9.8-21.8,21.8-21.8c12.1,0,21.8,9.8,21.8,21.8l0,0
			C409.4,161.9,399.6,171.7,387.6,171.7z M374.5,149.9c0,7.2,5.9,13.1,13.1,13.1c7.2,0,13.1-5.9,13.1-13.1s-5.9-13.1-13.1-13.1
			c0,0,0,0,0,0C380.3,136.8,374.5,142.6,374.5,149.9z"/>
		<polygon class="st3" points="160.7,107.1 121.6,134.7 97.2,122.9 133.5,60 		"/>
		<polygon class="st0" points="184,147.4 158.7,152.8 121.6,134.7 160.7,107.1 		"/>
		<polygon class="st1" points="198.1,172 158.7,152.8 184,147.4 		"/>
		<polygon class="st0" points="121.6,134.7 68.8,172 97.2,122.9 		"/>
		<polygon class="st1" points="158.7,152.8 68.8,172 121.6,134.7 		"/>
		<polygon class="st4" points="198.1,172 68.8,172 158.7,152.8 		"/>
		<polygon class="st5" points="133.5,102.2 141.4,118.1 158.9,120.6 146.2,133 149.2,150.5 133.5,142.2 117.8,150.5 120.8,133 
			108.1,120.6 125.7,118.1 		"/>
		<polygon class="st6" points="103.6,7.5 8.6,172 0,172 99.3,0 		"/>
		<polygon class="st7" points="112.1,22.4 25.7,172 17,172 107.8,14.9 		"/>
		<polygon class="st2" points="120.6,37.2 42.7,172 34.1,172 116.3,29.7 		"/>
		<polygon class="st8" points="129.1,52.1 59.8,172 51.2,172 124.8,44.6 		"/>
	</g>
</g>
</svg>
